<?xml version="1.0" encoding="utf-8"?>
<!-- Generator: Adobe Illustrator 22.1.0, SVG Export Plug-In . SVG Version: 6.00 Build 0)  -->
<svg version="1.1" id="Calque_1" xmlns="http://www.w3.org/2000/svg" xmlns:xlink="http://www.w3.org/1999/xlink" x="0px" y="0px"
	 viewBox="0 0 580 491" style="enable-background:new 0 0 580 491;" xml:space="preserve">
<style type="text/css">
	.st0{fill:#FFFFFF;}
	.st1{fill:#FFB600;}
	.st2{fill:#F29727;}
	.st3{display:none;fill:none;stroke:#000000;stroke-miterlimit:10;}
	.st4{display:none;}
	.st5{display:inline;}
	.st6{display:inline;fill:#FFB600;}
	.st7{display:inline;fill:none;stroke:#000000;stroke-miterlimit:10;}
</style>
<g id="Test_1_-_copie">
	<g>
		<g>
			<path class="st0" d="M201.6,424.8c-28.2,0-53.9-10.4-76.5-31.1c-28.4-26-45.5-62.2-54.9-88c-11.6-31.9-16-60.6-15.2-75
				c1.9-37,37.7-58.8,72.2-79.8c6.2-3.8,12.5-7.6,18.5-11.5l1.1,1.7l-1.1-1.7c30-19.4,132.9-81.9,198.9-72.1
				c42.2,6.3,71,33.5,92.1,53.4c9,8.5,16.8,15.9,22.9,18.6l3,1.3c20.8,9.2,52.2,23,61,53.8c7.3,25.6-12.7,48.4-33.9,72.6
				c-5.7,6.5-11.6,13.3-17,20.1c-10.1,12.8-4.5,29.6,1.5,47.4c7.7,23.1,16.5,49.3-12,68.6c-11.9,8-63.9,10.1-124.2,12.6
				c-43.6,1.8-88.7,3.6-119,7.9C213.1,424.4,207.3,424.8,201.6,424.8z"/>
		</g>
		<circle class="st1" cx="275" cy="260.7" r="113"/>
		<g>
			<path class="st0" d="M352.9,238.9c-2.8,0-5.5-1.7-6.6-4.6c-1.2-3.4-2.8-6.7-4.5-9.9c-1.8-3.4-0.6-7.6,2.8-9.5
				c3.4-1.8,7.6-0.6,9.5,2.8c2,3.8,3.8,7.7,5.3,11.7c1.3,3.6-0.5,7.7-4.1,9C354.5,238.8,353.7,238.9,352.9,238.9z"/>
		</g>
		<g>
			<path class="st0" d="M333.7,209c-1.8,0-3.6-0.7-4.9-2c-14.4-14.4-33.4-22.3-53.7-22.3c-9.3,0-18.3,1.7-26.9,4.9
				c-3.6,1.4-7.7-0.4-9-4.1s0.4-7.7,4.1-9c10.2-3.9,20.9-5.8,31.9-5.8c24,0,46.6,9.4,63.6,26.4c2.7,2.7,2.7,7.2,0,9.9
				C337.3,208.3,335.5,209,333.7,209z"/>
		</g>
		<g>
			<path class="st2" d="M201.6,424.8c-28.2,0-53.9-10.4-76.5-31.1c-28.4-26-45.5-62.2-54.9-88c-11.6-31.9-16-60.6-15.2-75
				c1.9-37,37.7-58.8,72.2-79.8c6.2-3.8,12.5-7.6,18.5-11.5l1.1,1.7l-1.1-1.7c30-19.4,132.9-81.9,198.9-72.1
				c42.2,6.3,71,33.5,92.1,53.4c9,8.5,16.8,15.9,22.9,18.6l3,1.3c20.8,9.2,52.2,23,61,53.8c7.3,25.6-12.7,48.4-33.9,72.6
				c-5.7,6.5-11.6,13.3-17,20.1c-10.1,12.8-4.5,29.6,1.5,47.4c7.7,23.1,16.5,49.3-12,68.6c-11.9,8-63.9,10.1-124.2,12.6
				c-43.6,1.8-88.7,3.6-119,7.9C213.1,424.4,207.3,424.8,201.6,424.8z M329.7,70.2c-64.4,0-154.2,54.7-181.8,72.5
				c-6,3.9-12.4,7.8-18.6,11.5c-33.6,20.5-68.4,41.7-70.3,76.6c-1.4,26.3,17,112.5,68.8,159.8c26.2,24,56.7,33.7,90.5,28.8
				c30.5-4.4,75.7-6.2,119.4-8c54.7-2.2,111.2-4.5,122.1-11.9c26-17.5,18.4-40.1,10.5-64c-6-18-12.2-36.6-0.8-51.2
				c5.4-6.9,11.4-13.7,17.1-20.3c20.4-23.3,39.7-45.3,33-68.8c-8.3-29-38.6-42.4-58.7-51.3l-3-1.3c-6.7-3-14.3-10.2-24-19.3
				c-20.7-19.5-49-46.3-90-52.3C339.4,70.5,334.6,70.2,329.7,70.2z"/>
		</g>
	</g>
	<path class="st3" d="M157.5,355.5c-51,10-127.8,65.4-171,22s-36.6-89.2-52-170c-7.3-38.4-44-55-43-86c1.1-32.7,53.9-55.9,92.5-66.3
		s81.7-84.1,139.5-77.7c73,8,81.3,85.7,144,119.9c105.8,57.7,42.7,216.7,15.4,249.5S202.1,346.8,157.5,355.5z"/>
</g>
<g id="Test_1" class="st4">
	<g class="st5">
		<g>
			<rect x="-193" y="79" width="65" height="298"/>
		</g>
		<g>
			<rect x="-164" y="118" width="107" height="65"/>
		</g>
		<path d="M-42.5-69C-124.8-69-191.7-3-193,79c0,0.8,0,1.7,0,2.5c0,51.4,25.7,96.7,65,123.9V81.5C-128,34.3-89.7-4-42.5-4
			C-34-4-25.8-2.8-18-0.4L1.9-62.3C-12.1-66.7-27-69-42.5-69z"/>
	</g>
	<circle class="st6" cx="66" cy="240" r="113"/>
	<circle class="st6" cx="276" cy="280" r="113"/>
	<g class="st5">
		<g>
			<rect x="569" y="2" width="65" height="377"/>
		</g>
		<g>
			<path d="M521,153c-62.4,0-113,50.6-113,113s50.6,113,113,113s113-50.6,113-113S583.4,153,521,153z M521,314
				c-26.5,0-48-21.5-48-48s21.5-48,48-48s48,21.5,48,48S547.5,314,521,314z"/>
		</g>
	</g>
	<g class="st5">
		<g>
			<path d="M966.8,286c1.4-7.1,2.2-14.5,2.2-22c0-1.9,0-3.7-0.1-5.5c-0.3-6.2-1.1-12.2-2.3-18C955.7,189.4,910.3,151,856,151
				c-62.4,0-113,50.6-113,113s50.6,113,113,113c48.3,0,89.6-30.3,105.7-73h-79.2c-7.6,5-16.7,8-26.5,8s-18.9-2.9-26.5-8
				c-6.8-4.5-12.4-10.7-16.2-18c-3.4-6.6-5.3-14.1-5.3-22c0-1.9,0.1-3.7,0.3-5.5c0.7-6.5,2.8-12.6,5.8-18
				c8.2-14.6,23.9-24.5,41.8-24.5s33.6,9.9,41.8,24.5c3.1,5.4,5.1,11.5,5.8,18c0.2,1.8,0.3,3.6,0.3,5.5c0,7.9-1.9,15.4-5.3,22H966.8
				z"/>
		</g>
		<path d="M969,264c0,7.5-0.7,14.9-2.2,22H800.5v-45.5h166c1.3,5.8,2,11.8,2.3,18C969,260.3,969,262.1,969,264z"/>
	</g>
	<g class="st5">
		<rect x="656" y="194" width="65" height="183"/>
		<circle cx="688.5" cy="142.5" r="35.5"/>
	</g>
	<circle class="st5" cx="1023.5" cy="341.5" r="35.5"/>
	<path class="st7" d="M165.5,447.5c-25.9-0.7-52-30-79-34c-51.4-7.6-118.8,63.4-162,20s-36.6-89.2-52-170c-7.3-38.4-44-55-43-86
		c1.1-32.7,53.9-55.8,92.4-66.3c38.6-10.4,81.7-84.1,139.6-77.7c60.9,6.7,76.7,61.8,116.6,99.7c10.7,10.2,27,12,39.7,4.5
		c48.3-28.8,123.6-65.8,175.4-58.1c60.6,9,94.3,62.8,114.4,71.8c20.2,9,60.8,22.1,62.8,53.8c2.1,32.6-25.8,59.5-50.5,90.9
		s6.4,107.4-51.6,127.4c-22.8,7.9-79.6-6-151-6C266.5,417.5,204.5,448.5,165.5,447.5z"/>
	<path class="st7" d="M257.8,95.4c44.1-28.5,136.9-80.8,197.5-71.8s94.2,62.8,114.4,71.8s53.9,22.4,62.8,53.9
		c9,31.4-25.8,59.5-50.5,90.9s38.1,83-10.1,115.6c-20,13.5-171.7,10.1-242.4,20.2c-119.3,17-163.8-148.1-161.6-190.7
		C170.3,142.5,219.7,120.1,257.8,95.4z"/>
	<path class="st7" d="M157.5,355.5c-51,10-127.8,65.4-171,22s-36.6-89.2-52-170c-7.3-38.4-44-55-43-86c1.1-32.7,53.9-55.9,92.5-66.3
		s81.7-84.1,139.5-77.7c73,8,81.3,85.7,144,119.9c105.8,57.7,42.7,216.7,15.4,249.5S202.1,346.8,157.5,355.5z"/>
</g>
</svg>
