<svg width="334" height="196" viewBox="0 0 334 196" fill="none" xmlns="http://www.w3.org/2000/svg">
<path opacity="0.69" fill-rule="evenodd" clip-rule="evenodd" d="M47.0498 161.017L64.8631 162.369C72.7252 184.265 95.132 198.359 119.054 194.907L252.641 175.631C256.896 175.107 261.001 174.043 264.879 172.505C271.881 169.741 278.036 165.47 283.01 160.142C287.906 154.908 291.705 148.603 294.002 141.573C318.398 136.601 335.813 114.095 333.799 88.6426C332.901 77.303 328.287 67.1476 321.246 59.2772C313.327 50.3656 302.211 44.239 289.43 42.8121L264.647 40.0453C259.175 14.5652 234.81 -2.67177 208.629 1.10591L77.1886 20.0722C71.26 20.5702 65.5814 22.1183 60.3649 24.5471C44.4201 31.8487 33.3534 47.1451 31.4823 64.6627C25.0889 67.2167 19.3792 71.0411 14.6376 75.8024C9.46031 80.9916 5.40159 87.3293 2.89324 94.4448C1.03286 99.7024 0.0322981 105.343 0.0480969 111.183C0.0513645 117.023 1.07045 122.661 2.9482 127.913C5.47943 135.019 9.5579 141.342 14.7508 146.514C19.9407 151.692 26.2796 155.751 33.3964 158.26C37.7224 159.79 42.3076 160.738 47.0498 161.017Z" fill="white"/>
</svg>
