<svg width="1440" height="2814" viewBox="0 0 1440 2814" fill="none" xmlns="http://www.w3.org/2000/svg">
<g clip-path="url(#clip0_169_1105)">
<rect width="1440" height="2814" fill="white"/>
<g style="mix-blend-mode:multiply">
<circle cx="884.001" cy="1720" r="145.806" transform="rotate(51.1824 884.001 1720)" fill="#F29727" fill-opacity="0.28"/>
</g>
<circle cx="160.083" cy="838.083" r="295.936" transform="rotate(51.1824 160.083 838.083)" fill="#F29727" fill-opacity="0.1"/>
<circle cx="23.6467" cy="2703.82" r="295.936" transform="rotate(-19.7876 23.6467 2703.82)" fill="#F29727" fill-opacity="0.17"/>
<g style="mix-blend-mode:multiply">
<circle cx="549.471" cy="1124.47" r="175.302" transform="rotate(51.1824 549.471 1124.47)" fill="#95CD41" fill-opacity="0.29"/>
</g>
<g style="mix-blend-mode:multiply">
<circle cx="339.939" cy="2458.3" r="175.302" transform="rotate(-19.7876 339.939 2458.3)" fill="#F2BE22" fill-opacity="0.26"/>
</g>
<circle cx="1343.07" cy="1497.07" r="246.142" transform="rotate(51.1824 1343.07 1497.07)" fill="#F2BE22" fill-opacity="0.21"/>
<g style="mix-blend-mode:multiply">
<circle cx="1462" cy="2590" r="145.806" transform="rotate(51.1824 1462 2590)" fill="#95CD41" fill-opacity="0.33"/>
</g>
<circle cx="1375.5" cy="-230.5" r="493.5" fill="#F29727" fill-opacity="0.24"/>
<g style="mix-blend-mode:multiply">
<circle cx="1005.5" cy="-250.5" r="285.5" fill="#F2BE22" fill-opacity="0.26"/>
</g>
<circle cx="-31.5" cy="-470.5" r="493.5" fill="#95CD41" fill-opacity="0.27"/>
<g style="mix-blend-mode:multiply">
<circle cx="-43.7608" cy="1914.24" r="169.173" transform="rotate(45.4753 -43.7608 1914.24)" fill="#95CD41" fill-opacity="0.2"/>
</g>
</g>
<defs>
<clipPath id="clip0_169_1105">
<rect width="1440" height="2814" fill="white"/>
</clipPath>
</defs>
</svg>
